<svg height="491pt" viewBox="0 0 491 491.39531" width="491pt" xmlns="http://www.w3.org/2000/svg"><path d="m310.335938 261.171875c-.171876-.277344-.359376-.542969-.5625-.800781-.269532-.484375-.589844-.945313-.953126-1.367188-.386718-.40625-.824218-.769531-1.292968-1.078125-.234375-.222656-.484375-.425781-.746094-.617187-.136719-.070313-.269531-.0625-.40625-.128906-.542969-.234376-1.109375-.40625-1.6875-.511719-.4375-.128907-.882812-.214844-1.335938-.253907-1.046874.042969-2.085937.207032-3.097656.488282-.144531.054687-.289062 0-.414062.09375-.28125.164062-.546875.34375-.800782.542968-.503906.273438-.976562.597657-1.410156.96875-.386718.378907-.730468.796876-1.03125 1.25-.234375.25-.453125.519532-.65625.796876-8.035156 14.929687-20.273437 27.167968-35.199218 35.203124-.269532.1875-.519532.398438-.75.628907-.472657.304687-.902344.660156-1.289063 1.066406-.367187.421875-.6875.882813-.953125 1.375-.203125.253906-.390625.523437-.558594.800781-.066406.136719 0 .28125-.097656.421875-.171875.539063-.285156 1.09375-.34375 1.65625-.089844.46875-.132812.941407-.136719 1.417969.144531 1.03125.398438 2.046875.761719 3.023438.0625.136718.054688.289062.128906.425781.328125.578125.730469 1.117187 1.191406 1.597656.039063 0 .0625.097656.101563.136719.675781.667968 1.460937 1.207031 2.320313 1.601562.105468.046875.167968.132813.273437.183594l67.320313 28.847656c3.007812 1.289063 6.492187.613282 8.804687-1.699218 2.316406-2.3125 2.988281-5.800782 1.699219-8.804688zm-28.859376 40.183594c7.613282-5.703125 14.371094-12.460938 20.074219-20.070313l15.046875 35.121094zm0 0"/><path d="m484.566406 416.492188c-9.375-9.375-24.570312-9.375-33.945312 0l-83.3125-83.320313-44.710938-104.3125c7.570313-53.414063-16.871094-115.664063-64.3125-163.09375-32-33.152344-73.582031-55.445313-118.902344-63.746094-43.199218-6.816406-81.328124 3.738281-107.359374 29.800781s-36.625 64.167969-29.808594 107.367188c8.300781 45.320312 30.59375 86.902344 63.742187 118.90625 41.746094 41.75 94.96875 65.734375 143.546875 65.734375 6.539063-.015625 13.070313-.492187 19.542969-1.421875l104.328125 44.710938 83.3125 83.3125c-9.308594 9.394531-9.308594 24.539062 0 33.933593 9.371094 9.375 24.570312 9.375 33.941406 0l33.945313-33.933593c9.304687-9.398438 9.304687-24.539063 0-33.9375zm-56.566406 56.558593c-1.53125-1.519531-2.363281-3.601562-2.296875-5.757812-.019531-2.085938.808594-4.089844 2.296875-5.550781l5.652344-5.65625c3.125-3.125 3.125-8.191407 0-11.3125l-90.054688-90.058594c-.417968-.347656-.875-.652344-1.359375-.902344-.359375-.300781-.742187-.566406-1.144531-.800781l-.128906-.046875-107.582032-46.105469c-.191406-.085937-.402343-.054687-.601562-.125-1.035156-.316406-2.117188-.453125-3.199219-.402344-.207031 0-.398437-.054687-.617187 0-48.886719 7.878907-107.085938-14.945312-151.6875-59.535156-30.769532-29.613281-51.492188-68.121094-59.253906-110.113281-6-38 2.984374-71.199219 25.3125-93.550782 22.328124-22.351562 55.574218-31.328124 93.542968-25.304687 41.984375 7.769531 80.484375 28.488281 110.09375 59.25 44.59375 44.589844 67.410156 102.71875 59.539063 151.6875-.011719.214844-.011719.429687 0 .648437-.042969.53125-.019531 1.070313.0625 1.597657.050781.542969.160156 1.082031.328125 1.601562.070312.199219 0 .40625.128906.605469l46.09375 107.554688.050781.128906c.394531.851562.9375 1.632812 1.597657 2.300781.066406.058594.082031.144531.136718.203125l90.054688 90.054688c3.125 3.121093 8.1875 3.121093 11.3125 0l5.65625-5.65625c1.5-1.503907 3.539062-2.347657 5.660156-2.347657 2.125 0 4.160156.84375 5.660156 2.347657 1.53125 1.527343 2.363282 3.621093 2.289063 5.785156.027343 2.074218-.800781 4.070312-2.289063 5.519531l-33.953125 33.941406c-3.167969 3-8.132812 3-11.300781 0zm0 0"/><path d="m244.476562 294.246094c23.425782-7.972656 41.832032-26.355469 49.832032-49.769532.257812-.574218.445312-1.179687.5625-1.800781 4.226562-13.105469 5.914062-26.898437 4.976562-40.640625.078125-.726562.054688-1.460937-.074218-2.183594-1.972657-21.769531-8.226563-42.933593-18.398438-62.277343-.1875-.527344-.4375-1.035157-.738281-1.503907-20.828125-39.546874-53.148438-71.855468-92.703125-92.664062-.449219-.28125-.925782-.515625-1.421875-.699219-19.402344-10.195312-40.628907-16.449219-62.457031-18.398437-.621094-.097656-1.253907-.117188-1.878907-.0625-13.792969-.960938-27.644531.726562-40.800781 4.972656-.621094.117188-1.226562.308594-1.800781.570312-23.324219 7.953126-41.644531 26.273438-49.601563 49.597657-.257812.570312-.441406 1.171875-.550781 1.785156-4.253906 13.15625-5.945313 27.007813-4.984375 40.800781-.054688.625-.03125 1.257813.066406 1.878906 1.945313 21.832032 8.199219 43.058594 18.398438 62.457032.183594.5.417968.976562.703125 1.425781 20.996093 39.828125 53.597656 72.339844 93.488281 93.222656.089844 0 .160156.085938.25.121094 19.53125 10.300781 40.921875 16.601563 62.917969 18.535156.359375.089844.722656.160157 1.089843.207031.132813 0 .261719-.070312.390626-.078124 2.640624.167968 5.257812.25 7.847656.246093 11.523437.066407 22.980468-1.765625 33.90625-5.433593.332031-.082032.660156-.1875.980468-.308594zm-73.734374-16.488282c-5.738282-1.820312-11.371094-3.957031-16.871094-6.402343l7.824218-7.824219 11.65625 11.648438zm-45.496094-22.402343 14.160156-14.152344 10.976562 10.953125-11.617187 11.625c-4.542969-2.527344-9.046875-5.386719-13.519531-8.425781zm-25.160156-20.078125 16.6875-16.722656 11.320312 11.3125-15.855469 15.890624c-4.128906-3.292968-8.179687-6.785156-12.152343-10.480468zm-21.792969-23.457032 15.855469-15.855468 11.3125 11.3125-16.6875 16.6875c-3.683594-3.972656-7.179688-8.023438-10.480469-12.144532zm-18.046875-26.519531 11.625-11.625 10.96875 10.976563-14.160156 14.160156c-3.015626-4.464844-5.875-8.96875-8.433594-13.511719zm-5.167969-119.105469 27.855469 27.855469-11.679688 11.707031-24.800781-24.800781c2.238281-5.265625 5.136719-10.226562 8.625-14.761719zm25.992187-20 24.824219 24.863282-11.671875 11.683594-27.886718-27.914063c4.53125-3.488281 9.492187-6.382813 14.757812-8.617187zm72.390626-.070312c5.753906 1.816406 11.402343 3.953125 16.921874 6.398438l-7.824218 7.816406-11.65625-11.640625zm45.503906 22.398438-14.117188 14.121093-10.953125-10.976562 11.558594-11.558594c4.539063 2.566406 9.042969 5.390625 13.511719 8.414063zm25.144531 20.105468-16.640625 16.640625-11.308594-11.3125 15.8125-15.816406c4.128906 3.289063 8.160156 6.816406 12.136719 10.488281zm21.847656 23.414063-15.855469 15.859375-11.320312-11.320313 16.714844-16.691406c3.679687 3.980469 7.167968 8.03125 10.460937 12.152344zm18.050781 26.511719-11.625 11.617187-10.96875-10.960937 14.160157-14.160157c3.015625 4.464844 5.871093 8.96875 8.433593 13.503907zm5.167969 119.105468-27.859375-27.855468 11.683594-11.679688 24.796875 24.800781c-2.230469 5.261719-5.128906 10.214844-8.621094 14.742188zm-39.144531-85.121094-10.976562-10.976562 11.046874-11.039062 10.992188 10.976562zm22.398438.273438 11.648437 11.65625-11.039063 11.039062-11.65625-11.65625zm-44.648438-22.558594-11.3125-11.3125 11.042969-11.050781 11.320312 11.320313zm-56.925781 11.679688-11.679688 11.671875-11.3125-11.3125 11.679688-11.671875zm0-22.625 11.671875-11.679688 11.3125 11.3125-11.671875 11.679688zm11.3125 33.9375 11.308593 11.308594-11.679687 11.683593-11.351563-11.28125zm11.308593-11.3125 11.671876-11.679688 11.320312 11.308594-11.679688 11.683594zm11.617188-34.304688-11.296875-11.3125 11.050781-11.046875 11.3125 11.3125zm-22.625-22.625-10.972656-10.976562 11.039062-11.039063 10.976563 10.96875zm-11.292969 11.3125-11.679687 11.671875-10.976563-10.96875 11.679688-11.679687zm-22.984375 22.992188-11.679687 11.671875-10.976563-10.96875 11.679688-11.679688zm-33.96875-10.609375-11.65625-11.664063 11.679688-11.671875 11.648437 11.65625zm-11.3125 11.3125-11.039062 11.039062-11.664063-11.65625 11.046875-11.046875zm11.3125 11.34375 10.976563 10.96875-11.050781 11.046875-10.964844-10.976563zm22.289063 22.28125 11.308593 11.320312-11.046874 11.007813-11.3125-11.3125zm22.621093 22.632812 11.3125 11.3125-11.039062 11.039063-11.3125-11.34375zm22.625 22.621094 10.976563 10.976563-11.039063 11.042968-11-11.007812zm11.335938-11.34375 11.671875-11.679687 10.976563 10.976562-11.679688 11.679688zm22.984375-22.992187 11.679687-11.671876 10.9375 10.96875-11.679687 11.679688zm33.96875 10.609374 11.65625 11.65625-11.679687 11.679688-11.65625-11.65625zm34.246094 11.65625 11.050781-11.039062 8.886719 8.886719c.320312 6.960937-.113281 13.933593-1.289063 20.800781zm13.664062-36.265624-2.597656 2.609374-11.65625-11.65625 7.824219-7.832031c2.457031 5.503907 4.601562 11.140625 6.429687 16.878907zm-126.710937-98.886719-11.039063 11.046875-11.664062-11.65625 11.046875-11.046875zm-22.351563 22.402343-11.679687 11.679688-11.65625-11.65625 11.671875-11.679688zm-68.953125 22.964844-11.046875 11.050782-8.886719-8.890626c-.316406-6.957031.117188-13.933593 1.292969-20.800781zm-13.65625 36.28125 2.609375-2.609375 11.664063 11.65625-7.839844 7.832031c-2.453125-5.503906-4.601562-11.136718-6.433594-16.878906zm126.722656 98.839844 11.039063-11.039062 11.65625 11.65625-11.039063 11.039062zm22.351563-22.351562 11.679687-11.679688 11.65625 11.6875-11.679687 11.679688zm34.648437 11.289062 27.886719 27.863281c-4.523437 3.492188-9.480469 6.386719-14.746093 8.617188l-24.796876-24.800781zm-115.105468-201.496094c1.488281 0 3.046875.222656 4.558594.285156l8.800781 8.800782-11.03125 11.066406-18.734375-18.746094c5.417968-.941406 10.90625-1.410156 16.40625-1.40625zm89.960937 244.445313-8.890625-8.886719 11.042969-11.039062 18.636719 18.640624c-6.863282 1.175782-13.832032 1.605469-20.789063 1.285157zm0 0"/><path d="m363.191406 160.582031c.445313.285157.925782.523438 1.421875.710938.265625.0625.527344.054687.800781.101562 29.003907 9.570313 60.324219-5.886719 70.371094-34.730469s-4.894531-60.414062-33.570312-70.929687c-.453125-.289063-.933594-.527344-1.433594-.714844-.207031-.046875-.40625 0-.605469 0-28.976562-9.574219-60.277343 5.835938-70.363281 34.636719s4.769531 60.371094 33.386719 70.964844zm59.503906-52.425781c-.027343 22.082031-17.921874 39.972656-40 40-1.609374-.0625-3.214843-.222656-4.800781-.488281.800781-1.183594 1.671875-2.296875 2.664063-3.480469 4.507812-5.007812 7.707031-11.054688 9.3125-17.597656 1.871094-6.460938 2.117187-13.285156.71875-19.867188-1.007813-4.285156-.867188-8.765625.410156-12.980468 1-4.285157 3.117188-8.226563 6.132812-11.425782 2.277344-2.585937 4.246094-5.429687 5.867188-8.472656 12.175781 7.144531 19.667969 20.195312 19.695312 34.3125zm-40-40c1.609376.0625 3.210938.222656 4.800782.488281-.800782 1.175781-1.664063 2.28125-2.648438 3.457031-4.503906 4.992188-7.703125 11.015626-9.3125 17.542969-1.875 6.460938-2.117187 13.285157-.714844 19.863281 1.007813 4.285157.867188 8.761719-.40625 12.976563-1.007812 4.289063-3.125 8.238281-6.144531 11.449219-2.285156 2.589844-4.257812 5.441406-5.878906 8.496094-15.539063-9.121094-23.03125-27.53125-18.28125-44.910157 4.753906-17.378906 20.566406-29.414062 38.585937-29.363281zm0 0"/></svg>